<?xml version="1.0" encoding="utf-8"?>
<!-- Generator: Adobe Illustrator 17.0.2, SVG Export Plug-In . SVG Version: 6.00 Build 0)  -->
<!DOCTYPE svg PUBLIC "-//W3C//DTD SVG 1.1//EN" "http://www.w3.org/Graphics/SVG/1.1/DTD/svg11.dtd">
<svg version="1.1" id="Layer_1" xmlns="http://www.w3.org/2000/svg" xmlns:xlink="http://www.w3.org/1999/xlink" x="0px" y="0px"
	 width="806px" height="806px" viewBox="0 0 806 806" enable-background="new 0 0 806 806" xml:space="preserve">
<path fill="#053C79" d="M389.49,0h27.09c48.82,1.76,97.35,12.15,142.38,31.13c68.21,28.62,128.26,76.4,171.43,136.47
	c43.39,60.13,69.44,132.5,74.65,206.45c0.41,5.58,0.62,11.16,0.96,16.74v24.61c-1.44,41.42-8.9,82.67-22.75,121.76
	c-20.07,57.03-53.33,109.3-96.18,151.93c-45.44,45.35-102,79.42-163.28,98.52c-35.13,11.07-71.78,17.03-108.57,18.39h-24.65
	c-42.5-1.47-84.83-9.3-124.82-23.86c-69.6-25.11-131.87-69.96-178.04-127.75c-20.97-26.25-38.6-55.16-52.38-85.81
	C13.79,520.79,1.94,468.77,0,416.4v-27.63c1.21-28.07,4.88-56.07,11.75-83.33c19.27-78.48,63.26-150.45,123.63-204.07
	c39.41-35.09,85.84-62.26,135.75-79.39C309.2,8.76,349.25,1.58,389.49,0z"/>
<path fill="#FDFDFD" d="M213.32,69.36c55.69-32.04,119.62-49.51,183.85-50.41c48.26-0.76,96.69,7.69,141.8,24.94
	c68.83,26.13,129.67,72.69,173.09,132.13c15.88,21.63,29.41,44.97,40.51,69.39c-1.86,6.25-5.66,11.66-8.98,17.19
	c-10.52,16.15-22.57,31.23-34.79,46.11c-23.52,28.03-47.47,55.94-75.2,79.95c-25.38,22.06-52.91,42.06-83.46,56.36
	c-9.18,3.84-19.41,7.74-29.44,5.07c-9.68-2.79-15.27-12.21-18.87-20.97c-6.87-17.61-9.71-36.47-11.96-55.14
	c-2.34-16.13-10.12-31.6-22.41-42.42c-13.68-12.13-31.6-18.88-49.67-20.69c-26.45-3.48-53.52-0.27-78.9,7.7
	c-27.64,8.59-53.19,22.57-77.84,37.51c-49.39,30.21-96.79,63.51-144.03,96.94c-27.1,19.36-54.11,38.84-80.84,58.71
	c-24.74-81.94-20.84-172.16,11.14-251.57C79.08,180.28,138.66,111.93,213.32,69.36z"/>
<path fill="#053C79" d="M377.9,77.95c4.19-7.48,12.34-13.15,21.15-12.56c4.34,0.2,7.6,3.34,11.15,5.44c1.2-1.13,2.03-2.5,2.23-4.15
	c3.63-0.04,7.26-0.03,10.89-0.01c0.21,11.97,0.52,23.95,0.49,35.93c-5.71,0.06-11.43-0.16-17.13,0.23
	c-0.2-5.26,0.21-10.77-1.7-15.76c-0.79-2.84-4.66-3.68-6.76-1.83c-2.24,3.09-2.23,7.12-2.4,10.77c0.04,10.05-0.23,20.12,0.74,30.13
	c0.31,2.98,0.69,6.23,2.79,8.54c2.12,1.65,5.38,0.48,6.12-2.04c2.11-6.75,1.38-13.97,1.53-20.94c5.66-0.23,11.33-0.4,17-0.31
	c-0.24,8.13,1.34,16.43-1.13,24.37c-1.97,7.09-6.74,13.89-13.89,16.41c-9.81,3.34-21.47-0.13-27.84-8.31
	c-7.44-9.17-9.23-21.41-9.74-32.84C371.21,99.76,372.24,87.93,377.9,77.95z"/>
<path fill="#053C79" d="M463.58,72.68c8.63-1.26,18.03,1.16,24.38,7.3c4.25,4.26,6.78,10,7.81,15.87c1.94,10.32,0.36,20.92-2.16,31
	c-2.87,10.36-7.3,21.08-16.05,27.84c-12.21,9.69-32.66,5.24-39.72-8.66c-5.32-10.49-4.68-22.83-2.61-34.09
	c2.23-11.34,6.07-22.94,14.14-31.52C453.2,76.49,458.14,73.62,463.58,72.68z"/>
<path fill="#053C79" d="M261.88,96.62c17.79-6.37,35.53-12.87,53.28-19.33c4.13,11.14,8.17,22.31,12.2,33.49
	c-4.54,1.66-9.07,3.3-13.61,4.96c-2.09-5.15-3.39-11.02-7.56-14.97c-3.8-2.78-8.41,0.11-12.26,1.3c1.76,4.89,3.57,9.76,5.32,14.65
	c3.29-1.14,6.56-2.32,9.84-3.47c1.98,5.44,3.94,10.89,5.94,16.33c-3.25,1.25-6.53,2.43-9.79,3.63c2.25,6.06,4.34,12.18,6.65,18.21
	c4.09-1.53,9.99-3.06,10.31-8.35c-0.19-6.21-3.02-11.94-5.05-17.71c4.47-1.93,9.13-3.38,13.69-5.09c4.4,12.26,8.95,24.48,13.3,36.77
	c-17.81,6.53-35.64,13.01-53.48,19.45c-1.9-5.24-3.92-10.44-5.67-15.73c1.24-0.68,2.64-1.15,3.7-2.13c1.86-2.55,0.51-5.79-0.08-8.53
	c-2.91-9.4-6.46-18.58-9.9-27.78c-1.56-3.62-2.78-7.72-5.97-10.29c-1.76-0.83-3.64,0.02-5.41,0.31
	C265.56,107.08,263.33,101.98,261.88,96.62z"/>
<path fill="#053C79" d="M518.11,103.1c2.44-4.99,5.11-9.86,7.58-14.85c10.62,5.42,21.23,10.87,31.89,16.23
	c5.96,2.97,11.63,7.3,14.44,13.51c5.79,12.54-4.24,29.97-18.58,29.4c4.37,5.32,2.47,12.88-0.35,18.48c-1.54,3.67-4.5,6.96-4.6,11.08
	c2.16-0.77,2.78-3.17,3.92-4.91c1.86,0.88,3.7,1.8,5.54,2.74c-2.93,5.94-5.87,12.81-12.27,15.74c-9.13,3.36-21.99-4.15-20.69-14.64
	c0.73-9.19,7.67-16.27,10.14-24.92c0.9-3.86-3.56-5.27-6.14-6.77c-2.39,5.28-5.71,10.2-7.28,15.82c-0.75,2.95,2.22,4.49,4.29,5.74
	c-2.62,4.63-4.81,9.49-7.3,14.18c-10.59-5.26-21.06-10.73-31.61-16.07c2.51-4.96,5.12-9.89,7.6-14.87c1.66,0.54,3.52,2,5.27,0.95
	c2.11-1.61,3.22-4.13,4.56-6.35c4.64-8.8,9.07-17.7,13.63-26.54c1.42-2.98,2.99-5.94,3.8-9.16
	C522.6,105.33,519.71,104.3,518.11,103.1z"/>
<path fill="#FDFDFD" d="M468.33,90.12c1.96-1.26,4.72,0.06,5.18,2.29c1.22,4.63-0.22,9.41-0.82,14.04
	c-2.18,10.59-4.04,21.33-7.69,31.53c-0.99,2.34-2.77,6.01-5.9,4.96c-3.45-0.95-2.73-5.22-2.74-7.95
	c0.91-10.43,3.63-20.61,5.95-30.79C463.81,99.37,464.62,93.85,468.33,90.12z"/>
<path fill="#053C79" d="M233.37,112.58c2.98-2.08,6.07-3.98,9.1-5.98c6.63,10,13.07,20.12,19.57,30.2
	c-4.77,3.16-9.6,6.22-14.38,9.35c-3.21-4.34-5.75-9.38-10.18-12.65c-2.53-2-6.89,0.35-6.5,3.58c0.61,4.02,2.96,7.48,4.94,10.94
	c4.46,7.14,8.97,14.26,13.8,21.14c2.34,3.04,4.59,6.63,8.38,7.99c2.61,0.27,5.09-2.51,4.22-5.1c-1.87-6.83-6.39-12.49-9.95-18.48
	c4.83-3.1,9.63-6.24,14.46-9.34c4.5,7.31,10.35,14.14,12.28,22.71c1.65,6.88,0.86,14.73-3.78,20.33
	c-7.17,8.62-20.22,10.93-30.26,6.28c-10.73-4.82-18.42-14.35-24.61-24.04c-5.79-9.51-10.85-20.22-10.38-31.63
	c0.2-8.03,4.51-16.29,12-19.74c3.4-1.68,7.24-0.56,10.83-0.97C235.08,116.46,233.66,114.02,233.37,112.58z"/>
<path fill="#FDFDFD" d="M543.37,115.93c2.55,1.6,5.92,2.9,6.83,6.09c0.27,3.94-1.85,7.88-4.72,10.47c-3.07,2.47-7.08,0.5-10.03-1.13
	C538.32,126.34,540.74,121.09,543.37,115.93z"/>
<path fill="#053C79" d="M607.13,133.82c8.77,7.88,17.49,15.81,26.19,23.77c5.65,5.36,10.64,12.3,10.96,20.36
	c0.11,8.88-5.59,16.68-12.36,21.89c-5.23,4.14-12.56,5.35-18.82,3c-6.96-2.47-12.22-7.86-17.54-12.74
	c-3.28,3.96-7.29,7.42-9.73,11.99c-1.43,2.95,1.32,5.33,3.16,7.24c-3.69,4.19-7.48,8.29-11.24,12.4
	c-9.2-8.34-18.46-16.61-27.57-25.05c3.77-4.06,7.47-8.18,11.14-12.33c1.71,0.96,3.23,3.02,5.39,2.6c3.25-1.19,5.35-4.13,7.79-6.44
	c6.07-6.62,12.08-13.3,18.13-19.95c2.33-2.73,5.05-5.33,6.32-8.78c0.62-2.36-1.68-3.89-2.99-5.45
	C599.61,142.09,603.5,138.07,607.13,133.82z"/>
<path fill="#053C79" d="M169.33,160.87c16.67,10.55,33.23,21.28,49.84,31.93c2.46,1.5,4.84,3.48,7.8,3.86
	c2.07-0.02,3.59-1.55,5.09-2.76c4.05,3.88,8.32,7.55,12.11,11.7c-8.18,8.32-16.1,16.91-24.23,25.28
	c-4.03-3.79-8.01-7.64-12.04-11.43c1.24-1.89,3.31-3.8,2.7-6.28c-0.55-1.92-2.71-2.57-4.11-3.71c-3.05,3.38-6.28,6.6-9.37,9.94
	c1.45,1.59,2.56,3.87,4.79,4.47c1.72-0.13,2.86-1.56,4.16-2.49c3.98,3.84,8.03,7.62,12.02,11.47c-6.74,7.04-13.38,14.18-20.18,21.15
	c-4.51-2.97-8.13-7.53-12.28-11.13c1.04-1.8,2.69-3.59,2.39-5.83c-0.38-2.77-1.94-5.2-3.49-7.47
	c-11.35-16.24-22.79-32.42-34.13-48.68C156.62,174.13,163.14,167.66,169.33,160.87z"/>
<path fill="#FDFDFD" d="M606.17,178.39c4.01-4.25,7.87-8.64,11.81-12.96c2.11,2.42,5.9,4.82,5.06,8.5c-1.62,3.47-4.37,6.42-7.49,8.6
	C611.89,184.58,608.66,180.58,606.17,178.39z"/>
<path fill="#FDFDFD" d="M173.93,188.94c7.07,4.52,14.23,8.89,21.33,13.36c-2.27,2.19-4.43,4.51-6.61,6.8
	C183.71,202.4,178.98,195.56,173.93,188.94z"/>
<path fill="#053C79" d="M639.16,206.15c5.87-5.43,13.62-9.36,21.75-9.43c7.79,0.09,14.58,5.57,17.93,12.33
	c1.63,3.08,0.9,6.6,1.08,9.92c1.02,1.69,2.94,1.08,4.44,0.48c2.03,2.99,4.12,5.93,6.07,8.97c-8.01,5.54-16.06,11.02-24.09,16.53
	c-2.54-3.63-5.07-7.27-7.51-10.96c3.11-3.11,6.33-6.53,7.29-10.96c0.78-3.44-3.23-7.99-6.7-5.8c-3.74,2.12-3.76,6.95-3.84,10.72
	c0.18,8.56,0.95,17.43-2.08,25.63c-3.54,9.51-12.72,16.08-22.4,18.27c-10.38,2.49-20.99-4.65-24.86-14.11
	c-1.38-3.37-0.66-7.09-1.42-10.55c-0.89-1.99-3.18-0.9-4.74-0.62c-2.12-2.97-4.18-5.98-6.17-9.04c9.36-6.28,18.61-12.72,27.92-19.08
	c2.83,3.83,5.4,7.85,8.18,11.72c-4,4.09-8.71,8.08-10.27,13.83c-1.18,3.85,3.06,8.77,7.02,6.72c5.04-2.47,4.7-8.91,5.19-13.66
	C632.1,226.54,631.46,214.43,639.16,206.15z"/>
<path fill="#053C79" d="M121.56,216.88c10.6,5.39,20.88,11.42,31.3,17.15c-2.3,4.28-4.64,8.54-7.08,12.74
	c-4.7-2.56-9.36-5.7-14.77-6.46c-5.07,0.04-6.95,5.47-9.05,9.17c4.58,2.46,9.1,5.03,13.66,7.54c1.64-3.09,3.35-6.14,5.12-9.16
	c5.03,2.91,10.2,5.59,15.22,8.53c-1.73,3.02-3.42,6.07-5.03,9.15c5.68,3.02,11.28,6.18,16.89,9.33c1.9-3.72,5.57-8.31,2.7-12.45
	c-4-5.18-10.42-7.43-15.82-10.8c2.32-4.26,4.63-8.53,7.05-12.73c11.4,6.33,22.79,12.67,34.22,18.94
	c-9.15,16.64-18.39,33.22-27.57,49.84c-4.92-2.58-9.74-5.34-14.61-8.01c0.51-1.75,1.92-3.57,1.14-5.44c-1.42-2.6-4.11-4.11-6.49-5.7
	c-7.75-4.68-15.72-8.96-23.67-13.28c-3.48-1.67-6.87-3.85-10.74-4.45c-2.68-0.55-3.98,2.19-5.38,3.91
	c-4.81-2.81-9.78-5.35-14.58-8.18C103.32,250.02,112.49,233.48,121.56,216.88z"/>
<path fill="#D63549" d="M752.57,245.41c20.86,46.02,32.08,96.29,33.43,146.77c-27.75,27.27-56.42,53.64-86.49,78.34
	c-21.87,17.61-44.23,35.18-69.7,47.35c-17.76,9.77-36.98,17.29-57.06,20.53c-16.08,2.39-33.42,1.8-47.99-6.13
	c-13.32-7.1-22.84-19.83-28.31-33.68c-5.31-13.19-7.76-27.34-8.99-41.45c-0.86-10.53-4.05-21.37-11.48-29.17
	c-6.73-7.07-16.42-10.5-25.97-11.35c-6.58-0.54-13.41-0.78-19.72,1.48c-6.46,2.26-12.55,5.42-18.65,8.51
	c1.97-38.59,4.1-77.16,6.15-115.74c18.07,1.81,35.99,8.56,49.67,20.69c12.29,10.82,20.07,26.29,22.41,42.42
	c2.25,18.67,5.09,37.53,11.96,55.14c3.6,8.76,9.19,18.18,18.87,20.97c10.03,2.67,20.26-1.23,29.44-5.07
	c30.55-14.3,58.08-34.3,83.46-56.36c27.73-24.01,51.68-51.92,75.2-79.95c12.22-14.88,24.27-29.96,34.79-46.11
	C746.91,257.07,750.71,251.66,752.57,245.41z"/>
<path fill="#053C79" d="M93.34,290.49c8.01-3.8,17.53-2.07,25.17,1.79c5.97,2.86,10.18,8.99,10.49,15.63
	c0.81,7.12-1.55,13.98-3.28,20.78c5.06,1.11,10.02,3.09,15.24,3.25c3.07-0.48,4.03-3.7,4.89-6.22c5.38,1.46,10.8,2.78,16.13,4.44
	c-3.26,11.93-6.44,23.88-9.67,35.82c-5.35-1.43-10.68-2.91-16.04-4.3c0.07-1.92,0.97-4.08-0.18-5.84c-1.89-2-4.68-2.66-7.19-3.5
	c-8.57-2.48-17.23-4.64-25.83-7.01c-3.96-0.98-7.92-2.36-12.04-2.41c-2.89,0.01-3.7,3.1-4.54,5.28c-5.42-1.29-10.76-2.84-16.13-4.27
	c3.26-11.68,6.22-23.45,9.52-35.12C82.23,301.54,86.17,293.98,93.34,290.49z"/>
<path fill="#FDFDFD" d="M93.59,319.99c1-2.88,1.43-6.82,4.54-8.2c3.93-0.66,8.01,0.62,11.47,2.43c3.75,2.27,1.73,7.11,0.94,10.4
	C104.92,322.98,99.23,321.57,93.59,319.99z"/>
<path fill="#FDFDFD" d="M336.33,392.39c4.24-5.35,11.85-5.22,18.04-5.02c-3.73,9.85-2.78,21.55,2.69,30.58
	c3.55,7.32,4.48,16.1,1.81,23.85c-1.91,5.55-6.36,10.36-12.2,11.7c3.9,0.99,7.98,1.98,11.11,4.68c4.81,3.9,7.08,11.18,4.28,16.88
	c-2.32,3.31-5.67,5.73-8.26,8.83c-6.41,6.74-10.32,15.78-10.76,25.09c-0.1,2.85-0.01,5.72-0.09,8.58
	c-3.49-6.36-6.51-13.15-7.47-20.4c-1-6.52-0.2-13.27-2.19-19.64c-2.35-6.97-8.61-12.43-15.8-13.9c-6.97-1.5-14.33,0.83-19.95,5
	c-5,3.87-6.7,10.36-7.74,16.29c-2.9-6.57-6.51-13.14-12.32-17.58c-4.62-3.71-10.4-5.31-15.73-7.67c11.51,2.03,24.02-1.31,32.52-9.45
	c2.89-2.7,5.47-6.11,5.78-10.2c1.47-8.45-3.79-17.28-11.79-20.25c-5.46-2.56-11.65-1.16-17.35-2.68
	c-11.17-2.37-20.35-10.11-26.91-19.16c11.6,6.28,26.18,8.2,38.38,2.49c4.79-2,8.05-6.36,12.76-8.5c4.94-2.43,10.92-3.22,16.09-1.04
	c4.98,2.03,8.45,6.63,10.29,11.56c1.49,4.33,0.83,9,1.32,13.48c0.94,2.98,3.9,5.78,7.25,5.08c3.79-0.39,5.55-4.6,5.28-7.99
	C334.94,406.22,332.64,398.65,336.33,392.39z"/>
<path fill="#FDFDFD" d="M699.51,470.52c30.07-24.7,58.74-51.07,86.49-78.34c1.27,59.77-11.16,119.91-37.08,173.85
	c-9.42,8.23-20.45,14.41-31.29,20.54c-20.88,11.34-42.74,20.8-65.04,28.95c-19.91,7.17-40.22,13.39-61.05,17.24
	c-21.71,3.83-44.39,5.43-65.95-0.17c-12.71-3.37-25.6-10.46-31.42-22.81c-4.99-9.88-2.9-21.19-4.07-31.78
	c-1.33-15.72-4.39-32.15-13.99-45.1c-6.18-8.31-15.8-13.99-26.15-14.99c-15.42-1.6-30.73,3.78-43.75,11.69
	c1.77-34.33,3.71-68.66,5.43-102.99c6.1-3.09,12.19-6.25,18.65-8.51c6.31-2.26,13.14-2.02,19.72-1.48
	c9.55,0.85,19.24,4.28,25.97,11.35c7.43,7.8,10.62,18.64,11.48,29.17c1.23,14.11,3.68,28.26,8.99,41.45
	c5.47,13.85,14.99,26.58,28.31,33.68c14.57,7.93,31.91,8.52,47.99,6.13c20.08-3.24,39.3-10.76,57.06-20.53
	C655.28,505.7,677.64,488.13,699.51,470.52z"/>
<path fill="#FDFDFD" d="M163.68,492.49c7.79-11.25,15.7-22.42,23.47-33.69c3.1,11.24,5.9,22.57,9.03,33.8
	c8.57-0.92,18.04,1.6,23.64,8.51c3.99,3.99,7.88,10.03,14.44,8.77c-12.1,7.83-24.2,15.65-36.26,23.53c0,13.36-0.63,26.71-0.61,40.07
	c-11.2-9.06-22.05-18.61-33.46-27.36c-7.54,1.34-14.35,5.73-19.2,11.6c-2.67,3.08-4.03,7.12-7.08,9.92
	c-7.9,7.77-18.96,11.22-29.7,12.74c6.45-9.09,12.78-18.99,13.9-30.36c0.43-7.43,0.04-15.47,4.17-22.03
	c4.4-7.03,12.25-10.67,19.6-13.81c-5.31-3.44-11.7-5.1-18-4.21c-7.56-1.28-11-9.78-10.32-16.69c5.1,0.5,10.27,0.28,15.26-0.89
	c3.24-0.82,6.01-2.88,9.28-3.55C149.28,487.32,157.09,488.81,163.68,492.49z"/>
<path fill="#D63549" d="M406.21,529.6c13.02-7.91,28.33-13.29,43.75-11.69c10.35,1,19.97,6.68,26.15,14.99
	c9.6,12.95,12.66,29.38,13.99,45.1c1.17,10.59-0.92,21.9,4.07,31.78c5.82,12.35,18.71,19.44,31.42,22.81
	c21.56,5.6,44.24,4,65.95,0.17c20.83-3.85,41.14-10.07,61.05-17.24c22.3-8.15,44.16-17.61,65.04-28.95
	c10.84-6.13,21.87-12.31,31.29-20.54C710.5,647.6,642,714.51,559.7,751.28c-17.51-2.86-35.01-9.57-48.04-21.95
	c-11.3-10.79-18.52-25.13-23.25-39.85c-4.84-15.06-10.61-30.48-21.55-42.25c-6.85-7.55-16.59-12.56-26.86-12.83
	c-14.12-0.43-27.22,5.9-39.18,12.71l-0.69,0.01l-0.69-0.26c2.21-38.99,4.12-78,6.31-116.99
	C405.86,529.81,406.09,529.67,406.21,529.6z"/>
<path fill="#FDFDFD" d="M277.22,620.33c4.33-11.83,8.3-23.8,12.85-35.54c5.3,13.46,10.08,27.12,15.34,40.6
	c14.94,2.01,29.88,4.06,44.79,6.31c-12.53,11.75-25.68,22.85-38.47,34.32c2.47,13.84,5.14,27.64,7.59,41.49
	c-9.5-9.39-19.19-18.59-28.62-28.06c-11.73,8.01-23.35,16.17-35.07,24.19c3.98-17.23,8.08-34.44,12.09-51.67
	c-10.05-10.27-20.03-20.62-29.84-31.12C251,620.77,264.11,620.34,277.22,620.33z"/>
<path fill="#FDFDFD" d="M400.82,647.11c11.96-6.81,25.06-13.14,39.18-12.71c10.27,0.27,20.01,5.28,26.86,12.83
	c10.94,11.77,16.71,27.19,21.55,42.25c4.73,14.72,11.95,29.06,23.25,39.85c13.03,12.38,30.53,19.09,48.04,21.95
	c-22.21,9.93-45.33,17.8-69.01,23.42c-2.15-12.64-5.32-25.76-13.41-36.03c-4.45-5.66-11.16-9.66-18.41-10.16
	c-9.77-0.8-19.22,3.08-27.46,7.98c-6,3.48-11.15,8.19-17.02,11.86c-6.5,4.09-13.22,7.93-20.47,10.55
	c2.1-36.91,3.91-73.84,5.98-110.76C400.13,647.88,400.59,647.37,400.82,647.11z"/>
<path fill="#D63549" d="M431.41,736.49c8.24-4.9,17.69-8.78,27.46-7.98c7.25,0.5,13.96,4.5,18.41,10.16
	c8.09,10.27,11.26,23.39,13.41,36.03c-32.11,7.7-65.26,10.92-98.25,10.02c0.64-8.6,0.91-17.22,1.48-25.82
	c7.25-2.62,13.97-6.46,20.47-10.55C420.26,744.68,425.41,739.97,431.41,736.49z"/>
</svg>
